HIERARCHY
ROOT Hips
{
 OFFSET 0.000000 0.000000 0.000000
 CHANNELS 6 Xposition Yposition Zposition Yrotation Xrotation Zrotation
 JOINT Chest
 {
  OFFSET 0.000000 10.388337 0.005184
  CHANNELS 3 Yrotation Xrotation Zrotation
  JOINT Chest2
  {
   OFFSET 0.000000 10.458247 -0.010579
   CHANNELS 3 Yrotation Xrotation Zrotation
   JOINT Chest3
   {
    OFFSET 0.000000 10.415828 0.000000
    CHANNELS 3 Yrotation Xrotation Zrotation
    JOINT Chest4
    {
     OFFSET 0.000000 10.405206 0.000000
     CHANNELS 3 Yrotation Xrotation Zrotation
     JOINT Neck
     {
      OFFSET 0.000000 15.720090 0.000000
      CHANNELS 3 Yrotation Xrotation Zrotation
      JOINT Head
      {
       OFFSET 0.000000 9.732643 -0.022378
       CHANNELS 3 Yrotation Xrotation Zrotation
       End Site
       {
        OFFSET 0.000000 18.603619 -0.011814
       }
      }
     }
     JOINT RightCollar
     {
      OFFSET -3.167735 10.388953 0.000000
      CHANNELS 3 Yrotation Xrotation Zrotation
      JOINT RightShoulder
      {
       OFFSET -14.584825 0.000000 0.000000
       CHANNELS 3 Yrotation Xrotation Zrotation
       JOINT RightElbow
       {
        OFFSET 0.000000 -31.921689 0.000000
        CHANNELS 3 Yrotation Xrotation Zrotation
        JOINT RightWrist
        {
         OFFSET 0.000000 -25.835217 0.000000
         CHANNELS 3 Yrotation Xrotation Zrotation
         End Site
         {
          OFFSET 0.000000 -19.128920 0.000000
         }
        }
       }
      }
     }
     JOINT LeftCollar
     {
      OFFSET 3.167735 10.388953 0.000000
      CHANNELS 3 Yrotation Xrotation Zrotation
      JOINT LeftShoulder
      {
       OFFSET 14.584825 0.000000 0.000000
       CHANNELS 3 Yrotation Xrotation Zrotation
       JOINT LeftElbow
       {
        OFFSET 0.000000 -31.921689 0.000000
        CHANNELS 3 Yrotation Xrotation Zrotation
        JOINT LeftWrist
        {
         OFFSET 0.000000 -25.835217 0.000000
         CHANNELS 3 Yrotation Xrotation Zrotation
         End Site
         {
          OFFSET 0.000000 -19.128920 0.000000
         }
        }
       }
      }
     }
    }
   }
  }
 }
 JOINT RightHip
 {
  OFFSET -8.403278 -0.025659 -0.002592
  CHANNELS 3 Yrotation Xrotation Zrotation
  JOINT RightKnee
  {
   OFFSET 0.000000 -44.040977 0.002477
   CHANNELS 3 Yrotation Xrotation Zrotation
   JOINT RightAnkle
   {
    OFFSET 0.000000 -42.951162 0.004189
    CHANNELS 3 Yrotation Xrotation Zrotation
    JOINT RightToe
    {
     OFFSET 0.000000 -5.494238 12.197485
     CHANNELS 3 Yrotation Xrotation Zrotation
     End Site
     {
      OFFSET 0.000000 -1.538716 6.371628
     }
    }
   }
  }
 }
 JOINT LeftHip
 {
  OFFSET 8.403278 -0.025659 -0.002592
  CHANNELS 3 Yrotation Xrotation Zrotation
  JOINT LeftKnee
  {
   OFFSET 0.000000 -44.040977 0.002477
   CHANNELS 3 Yrotation Xrotation Zrotation
   JOINT LeftAnkle
   {
    OFFSET 0.000000 -42.951162 0.004189
    CHANNELS 3 Yrotation Xrotation Zrotation
    JOINT LeftToe
    {
     OFFSET 0.000000 -5.494238 12.197485
     CHANNELS 3 Yrotation Xrotation Zrotation
     End Site
     {
      OFFSET 0.000000 -1.538716 6.371628
     }
    }
   }
  }
 }
}
MOTION
Frames: 7
Frame Time: 0.008333
-24.904200 88.448747 113.722039 105.095806 -10.316333 4.004748 -3.974912 -3.390390 3.355713 -0.137684 -0.126405 0.111703 -0.243204 -0.222947 0.197383 -3.749215 -3.267807 3.076647 1.872145 24.204620 11.142549 0.681941 9.500426 19.539201 -5.631232 6.449455 -0.890197 -8.548368 8.135853 -16.826836 0.500199 -23.580193 18.373119 -4.440153 8.846125 1.494788 11.726056 6.329106 12.487766 -0.313736 11.564693 -3.643102 14.307412 -7.075911 -9.335198 3.276669 -6.983679 3.437822 -2.359356 8.453993 -4.188663 1.960240 31.661927 0.532241 -8.258885 -27.581642 2.594675 0.014628 -0.088122 -0.765420 -7.074157 -14.804715 5.665261 11.203741 27.330433 2.591537 -15.713461 -2.331737 -11.480583 -0.055249 -0.770378 -0.378430
-24.988857 88.419409 113.895324 104.979426 -10.621217 4.110550 -3.898776 -3.413750 3.360847 -0.133907 -0.125797 0.113267 -0.236571 -0.221906 0.200163 -3.666539 -3.267550 3.130120 1.887714 24.261966 11.308231 0.679618 9.618155 19.830975 -5.730864 6.492465 -1.154078 -8.487653 8.338504 -16.869584 0.726696 -23.683562 18.359993 -4.343156 9.724162 1.255213 11.939124 6.267624 12.680324 -0.421565 11.764709 -3.717028 14.265360 -7.083165 -9.354182 3.127869 -6.587535 3.081445 -2.236770 8.359884 -4.233014 2.214937 32.287853 0.603867 -8.012544 -27.604749 2.710656 0.005656 -0.223337 -0.839523 -7.440670 -14.516497 5.696382 11.428152 27.258288 2.638399 -15.643201 -2.110498 -11.702566 -0.078634 -0.756892 -0.293921
-25.075282 88.380127 114.065521 104.837293 -10.999797 4.225280 -3.807775 -3.394311 3.353938 -0.129123 -0.123426 0.113937 -0.228189 -0.217789 0.201396 -3.572666 -3.237448 3.174622 1.901079 24.305665 11.479190 0.670634 9.711644 20.133184 -5.864898 6.478770 -1.399764 -8.385017 8.501094 -16.997682 1.191367 -23.826357 18.329139 -4.174815 10.669238 1.056487 12.147897 6.206873 12.872163 -0.486824 11.956432 -3.673683 14.082119 -7.157482 -9.423895 2.879651 -6.078913 2.569654 -1.851039 8.312175 -4.250688 2.345941 33.007367 0.672862 -7.627831 -27.619597 2.797978 -0.005951 -0.377955 -0.912384 -7.745406 -14.149700 5.713221 11.586802 27.184541 2.650178 -15.569161 -1.939342 -11.954389 -0.095799 -0.706684 -0.196284
-25.157402 88.334909 114.230382 104.682359 -11.463927 4.369900 -3.703002 -3.337245 3.325121 -0.123366 -0.119256 0.113028 -0.218120 -0.210534 0.199871 -3.470218 -3.179000 3.195281 1.909722 24.339760 11.651400 0.651916 9.788416 20.439081 -6.039771 6.405971 -1.616767 -8.231393 8.624051 -17.232503 1.867275 -23.992410 18.323679 -3.914854 11.655421 0.908842 12.330943 6.155203 13.071970 -0.524143 12.158152 -3.573619 13.804836 -7.325254 -9.507431 2.544294 -5.473655 1.925851 -1.234192 8.348473 -4.253841 2.456676 33.779534 0.760929 -7.162478 -27.632305 2.872855 -0.018785 -0.532034 -0.995518 -7.971073 -13.687464 5.683867 11.681184 27.091226 2.629867 -15.502226 -1.802217 -12.220579 -0.105318 -0.631918 -0.096391
-25.232671 88.287093 114.390544 104.547813 -12.006366 4.557393 -3.597959 -3.256648 3.267420 -0.117347 -0.113743 0.110319 -0.207606 -0.200932 0.195191 -3.373167 -3.098676 3.182098 1.913691 24.370684 11.821484 0.625157 9.860069 20.742370 -6.239283 6.273156 -1.794533 -8.002803 8.715381 -17.584442 2.686381 -24.163517 18.388522 -3.557584 12.655124 0.817347 12.478473 6.107664 13.279764 -0.554180 12.373308 -3.459276 13.490193 -7.573677 -9.581769 2.151512 -4.806115 1.189372 -0.456360 8.490165 -4.248723 2.702193 34.549642 0.919771 -6.723461 -27.652528 2.937317 -0.029683 -0.661060 -1.085295 -8.123950 -13.141768 5.582784 11.718459 26.966071 2.588298 -15.450022 -1.674469 -12.479230 -0.110946 -0.547594 -0.010896
-25.301816 88.238628 114.550857 104.480473 -12.599854 4.782497 -3.516156 -3.173096 3.178211 -0.112406 -0.107990 0.106257 -0.198991 -0.190900 0.188120 -3.305580 -3.011554 3.133603 1.916914 24.406234 11.986700 0.599048 9.940140 21.036902 -6.448649 6.078184 -1.922016 -7.663662 8.786909 -18.057920 3.578715 -24.324638 18.552811 -3.114967 13.632680 0.795586 12.594442 6.055328 13.494965 -0.579005 12.599064 -3.347321 13.180148 -7.875554 -9.639590 1.741349 -4.115164 0.405191 0.426081 8.739139 -4.226332 3.137674 35.258365 1.183974 -6.379642 -27.691973 2.981281 -0.038254 -0.741148 -1.170709 -8.213735 -12.550799 5.404960 11.730077 26.802762 2.548684 -15.438413 -1.535103 -12.712218 -0.116521 -0.460452 0.050806
-25.366235 88.190124 114.719921 104.521197 -13.209840 5.020086 -3.477346 -3.106844 3.063071 -0.109770 -0.103361 0.101739 -0.194422 -0.182819 0.180217 -3.287316 -2.938771 3.057675 1.923026 24.455052 12.143939 0.581996 10.043671 21.315893 -6.660703 5.823439 -1.989754 -7.194440 8.844546 -18.650319 4.516057 -24.463292 18.822948 -2.625830 14.547447 0.856171 12.679581 5.997122 13.717653 -0.576204 12.829426 -3.230371 12.887320 -8.200647 -9.688287 1.358833 -3.429241 -0.390712 1.376523 9.086062 -4.163275 3.670096 35.848798 1.534275 -6.117353 -27.759835 2.977974 -0.046696 -0.753925 -1.231270 -8.246590 -11.957514 5.177903 11.766431 26.598238 2.538688 -15.542603 -1.375423 -12.915881 -0.123190 -0.371192 0.090331
